<svg id="Layer_1" data-name="Layer 1" xmlns="http://www.w3.org/2000/svg" viewBox="0 0 171.42 192.1"><defs><style>.cls-1{fill:#fc0;stroke:#6a000e;stroke-miterlimit:10;}</style></defs><title>mathrix_logo</title><g id="Layer_2" data-name="Layer 2"><g id="Layer_1-2" data-name="Layer 1-2"><path class="cls-1" d="M82.32,155.1a7.22,7.22,0,0,1-2.41-1.1L21.28,119.59,1,108.69V94.07A5.25,5.25,0,0,1,6.23,88.8a5.17,5.17,0,0,1,2.63.69l71.68,41.59a3.84,3.84,0,0,0,.78.34l2.79.86a5.49,5.49,0,0,0,3.11.06,15.35,15.35,0,0,0,4-1.46L165.66,88.1a2.6,2.6,0,0,1,3.56,1,2.69,2.69,0,0,1,.35,1.2l.84,17.12L89.19,154.74a3.55,3.55,0,0,1-1.13.44l-1.68.36a2.86,2.86,0,0,1-.58.06l-1,.09-.92-.09Z" transform="translate(0.5 0.45)"/><path class="cls-1" d="M81.34,190.54a7.17,7.17,0,0,1-2.4-1.14L20.31,155,0,144.13V129.51a5.25,5.25,0,0,1,5.23-5.27,5.17,5.17,0,0,1,2.63.69l71.67,41.59a3.69,3.69,0,0,0,.79.34l2.78.87a5.7,5.7,0,0,0,3.12.06,15.49,15.49,0,0,0,4-1.46l74.44-42.79a2.63,2.63,0,0,1,3.58,1,2.73,2.73,0,0,1,.34,1.19l.84,17.12-81.2,47.37a3.77,3.77,0,0,1-1.13.43L85.4,191a2.76,2.76,0,0,1-.57.06l-1,.09-.93-.09Z" transform="translate(0.5 0.45)"/><path class="cls-1" d="M82.27,119.12A7.08,7.08,0,0,1,79.88,118L21.75,83.75,1.62,72.89V64.4c0-8.34,5.84-11.76,13-7.6L80.47,95.19a4.49,4.49,0,0,0,.78.34l2.76.86a6.46,6.46,0,0,0,3.09.06,15.46,15.46,0,0,0,4-1.45l73.78-42.6a2.6,2.6,0,0,1,3.55,1,2.65,2.65,0,0,1,.35,1.2l.83,17L89.08,118.76a4.5,4.5,0,0,1-1.12.44l-1.67.35a2.76,2.76,0,0,1-.57.06l-1,.1-.92-.1Z" transform="translate(0.5 0.45)"/><path class="cls-1" d="M24.13,134.19l1.23,1.13L4.92,123.46A7.92,7.92,0,0,1,1,116.59v-8.43l20.31,10.9-.39,7a3.21,3.21,0,0,0,0,.62l.21,1.91.1.65a7,7,0,0,0,1.21,3,13.74,13.74,0,0,0,.92,1.1Z" transform="translate(0.5 0.45)"/><path class="cls-1" d="M24.76,98.6,26,99.73,4.24,87.11a5.32,5.32,0,0,1-2.62-4.58v-10l20.3,10.89-.39,7c0,.21,0,.41,0,.62l.23,2,.11.64a8.18,8.18,0,0,0,1.21,3A10.61,10.61,0,0,0,24,97.73Z" transform="translate(0.5 0.45)"/><path class="cls-1" d="M100.17,27.24,128.3,43.31c.32.19.33.32,0,.52L100.94,60.47,114.78,68a7.9,7.9,0,0,0,7.71,0l43.26-24L122.14,19.39a7.92,7.92,0,0,0-8,.09Z" transform="translate(0.5 0.45)"/><path class="cls-1" d="M7.2,45.67,81.9,1a6.62,6.62,0,0,1,6.82,0l15.48,9.23L45,45.6h0l60,33.95-15.34,9a6.67,6.67,0,0,1-6.64,0Z" transform="translate(0.5 0.45)"/></g></g></svg>